<svg width="27" height="25" viewBox="0 0 27 25" fill="none" xmlns="http://www.w3.org/2000/svg">
<path fill-rule="evenodd" clip-rule="evenodd" d="M4.98689 23.6842C4.86047 24.4049 5.57151 24.9689 6.19948 24.6462L13.332 20.9803L20.4645 24.6462C21.0924 24.9689 21.8035 24.4049 21.677 23.6842L20.3287 15.9988L26.0525 10.5443C26.5874 10.0345 26.3105 9.10248 25.5939 9.00068L17.6339 7.86988L14.0847 0.839253C13.765 0.205926 12.8989 0.205926 12.5792 0.839253L9.03002 7.86988L1.07 9.00068C0.353392 9.10248 0.0764918 10.0345 0.61141 10.5443L6.3352 15.9988L4.98689 23.6842ZM12.9569 19.186L6.96753 22.2644L8.09569 15.8338C8.14887 15.5306 8.04888 15.2202 7.83123 15.0128L3.10761 10.5114L9.69261 9.57595C9.96483 9.53728 10.2025 9.36342 10.3309 9.10905L13.332 3.16426L16.333 9.10905C16.4614 9.36342 16.6991 9.53728 16.9713 9.57595L23.5563 10.5114L18.8327 15.0128C18.6151 15.2202 18.5151 15.5306 18.5682 15.8338L19.6964 22.2644L13.7071 19.186C13.4705 19.0644 13.1935 19.0644 12.9569 19.186Z" fill="#9D875C"/>
</svg>
